# xmcd
#
# Track frame offsets:
#	150
#	14733
#	30518
#	45283
#	62074
#	77623
#	92932
#	104233
#	114140
#	129457
#	153913
#	170929
#
# Disc length: 2497 seconds
#
# Revision: 0
# Processed by: cddbd v1.4PL0 Copyright (c) Steve Scherf et al.
# Submitted via: audiograbber 1.81.02
#
DISCID=9809bf0c
DTITLE=NIGHTWORK - CALADONIA
DYEAR=2003
DGENRE=COUNTRY,BLUES,ROCK
TTITLE0=CALADONIA
TTITLE1=THERE GOES MY HEART
TTITLE2=SWEET LITTLE LIZA
TTITLE3=NEON MOON
TTITLE4=JOHNNY B GOOD
TTITLE5=LODI
TTITLE6=JAMBALAYA
TTITLE7=DIXIE FRIED
TTITLE8=HE'LL HAVE TO GO
TTITLE9=SWEET HOME ALABAMA
TTITLE10=LAY DOWN SALLY
TTITLE11=WONDERFULL TONIGHT
EXTD=
EXTT0=
EXTT1=
EXTT2=
EXTT3=
EXTT4=
EXTT5=
EXTT6=
EXTT7=
EXTT8=
EXTT9=
EXTT10=
EXTT11=
PLAYORDER=
